solid vcg
  facet normal 9.803934e-002 0.000000e+000 9.951826e-001
    outer loop
      vertex  -5.000000e-001 1.200000e+000 5.000000e-002
      vertex  -5.000000e-001 1.000000e+000 5.000000e-002
      vertex  -4.902450e-001 1.000000e+000 4.903900e-002
    endloop
  endfacet
  facet normal 9.803934e-002 0.000000e+000 9.951826e-001
    outer loop
      vertex  -5.000000e-001 1.200000e+000 5.000000e-002
      vertex  -4.902450e-001 1.000000e+000 4.903900e-002
      vertex  -4.902450e-001 1.200000e+000 4.903900e-002
    endloop
  endfacet
  facet normal 2.902756e-001 0.000000e+000 9.569430e-001
    outer loop
      vertex  -4.902450e-001 1.200000e+000 4.903900e-002
      vertex  -4.902450e-001 1.000000e+000 4.903900e-002
      vertex  -4.808660e-001 1.000000e+000 4.619400e-002
    endloop
  endfacet
  facet normal 2.902756e-001 0.000000e+000 9.569430e-001
    outer loop
      vertex  -4.902450e-001 1.200000e+000 4.903900e-002
      vertex  -4.808660e-001 1.000000e+000 4.619400e-002
      vertex  -4.808660e-001 1.200000e+000 4.619400e-002
    endloop
  endfacet
  facet normal 4.714087e-001 0.000000e+000 8.819148e-001
    outer loop
      vertex  -4.808660e-001 1.200000e+000 4.619400e-002
      vertex  -4.808660e-001 1.000000e+000 4.619400e-002
      vertex  -4.722210e-001 1.000000e+000 4.157300e-002
    endloop
  endfacet
  facet normal 4.714087e-001 0.000000e+000 8.819148e-001
    outer loop
      vertex  -4.808660e-001 1.200000e+000 4.619400e-002
      vertex  -4.722210e-001 1.000000e+000 4.157300e-002
      vertex  -4.722210e-001 1.200000e+000 4.157300e-002
    endloop
  endfacet
  facet normal 6.344265e-001 0.000000e+000 7.729833e-001
    outer loop
      vertex  -4.722210e-001 1.200000e+000 4.157300e-002
      vertex  -4.722210e-001 1.000000e+000 4.157300e-002
      vertex  -4.646450e-001 1.000000e+000 3.535500e-002
    endloop
  endfacet
  facet normal 6.344265e-001 0.000000e+000 7.729833e-001
    outer loop
      vertex  -4.722210e-001 1.200000e+000 4.157300e-002
      vertex  -4.646450e-001 1.000000e+000 3.535500e-002
      vertex  -4.646450e-001 1.200000e+000 3.535500e-002
    endloop
  endfacet
  facet normal 7.729843e-001 0.000000e+000 6.344251e-001
    outer loop
      vertex  -4.646450e-001 1.200000e+000 3.535500e-002
      vertex  -4.646450e-001 1.000000e+000 3.535500e-002
      vertex  -4.584270e-001 1.000000e+000 2.777900e-002
    endloop
  endfacet
  facet normal 7.729843e-001 0.000000e+000 6.344251e-001
    outer loop
      vertex  -4.646450e-001 1.200000e+000 3.535500e-002
      vertex  -4.584270e-001 1.000000e+000 2.777900e-002
      vertex  -4.584270e-001 1.200000e+000 2.777900e-002
    endloop
  endfacet
  facet normal 8.819149e-001 0.000000e+000 4.714087e-001
    outer loop
      vertex  -4.584270e-001 1.200000e+000 2.777900e-002
      vertex  -4.584270e-001 1.000000e+000 2.777900e-002
      vertex  -4.538060e-001 1.000000e+000 1.913400e-002
    endloop
  endfacet
  facet normal 8.819149e-001 0.000000e+000 4.714087e-001
    outer loop
      vertex  -4.584270e-001 1.200000e+000 2.777900e-002
      vertex  -4.538060e-001 1.000000e+000 1.913400e-002
      vertex  -4.538060e-001 1.200000e+000 1.913400e-002
    endloop
  endfacet
  facet normal 9.569423e-001 0.000000e+000 2.902782e-001
    outer loop
      vertex  -4.538060e-001 1.200000e+000 1.913400e-002
      vertex  -4.538060e-001 1.000000e+000 1.913400e-002
      vertex  -4.509610e-001 1.000000e+000 9.755000e-003
    endloop
  endfacet
  facet normal 9.569423e-001 0.000000e+000 2.902782e-001
    outer loop
      vertex  -4.538060e-001 1.200000e+000 1.913400e-002
      vertex  -4.509610e-001 1.000000e+000 9.755000e-003
      vertex  -4.509610e-001 1.200000e+000 9.755000e-003
    endloop
  endfacet
  facet normal 9.951825e-001 0.000000e+000 9.803957e-002
    outer loop
      vertex  -4.509610e-001 1.200000e+000 9.755000e-003
      vertex  -4.509610e-001 1.000000e+000 9.755000e-003
      vertex  -4.500000e-001 1.000000e+000 -0.000000e+000
    endloop
  endfacet
  facet normal 9.951825e-001 0.000000e+000 9.803957e-002
    outer loop
      vertex  -4.509610e-001 1.200000e+000 9.755000e-003
      vertex  -4.500000e-001 1.000000e+000 -0.000000e+000
      vertex  -4.500000e-001 1.200000e+000 0.000000e+000
    endloop
  endfacet
  facet normal 9.951825e-001 0.000000e+000 -9.803957e-002
    outer loop
      vertex  -4.500000e-001 1.200000e+000 0.000000e+000
      vertex  -4.500000e-001 1.000000e+000 -0.000000e+000
      vertex  -4.509610e-001 1.000000e+000 -9.755000e-003
    endloop
  endfacet
  facet normal 9.951825e-001 0.000000e+000 -9.803957e-002
    outer loop
      vertex  -4.500000e-001 1.200000e+000 0.000000e+000
      vertex  -4.509610e-001 1.000000e+000 -9.755000e-003
      vertex  -4.509610e-001 1.200000e+000 -9.755000e-003
    endloop
  endfacet
  facet normal 9.569423e-001 0.000000e+000 -2.902782e-001
    outer loop
      vertex  -4.509610e-001 1.200000e+000 -9.755000e-003
      vertex  -4.509610e-001 1.000000e+000 -9.755000e-003
      vertex  -4.538060e-001 1.000000e+000 -1.913400e-002
    endloop
  endfacet
  facet normal 9.569423e-001 0.000000e+000 -2.902782e-001
    outer loop
      vertex  -4.509610e-001 1.200000e+000 -9.755000e-003
      vertex  -4.538060e-001 1.000000e+000 -1.913400e-002
      vertex  -4.538060e-001 1.200000e+000 -1.913400e-002
    endloop
  endfacet
  facet normal 8.819149e-001 0.000000e+000 -4.714087e-001
    outer loop
      vertex  -4.538060e-001 1.200000e+000 -1.913400e-002
      vertex  -4.538060e-001 1.000000e+000 -1.913400e-002
      vertex  -4.584270e-001 1.000000e+000 -2.777900e-002
    endloop
  endfacet
  facet normal 8.819149e-001 0.000000e+000 -4.714087e-001
    outer loop
      vertex  -4.538060e-001 1.200000e+000 -1.913400e-002
      vertex  -4.584270e-001 1.000000e+000 -2.777900e-002
      vertex  -4.584270e-001 1.200000e+000 -2.777900e-002
    endloop
  endfacet
  facet normal 7.729843e-001 0.000000e+000 -6.344251e-001
    outer loop
      vertex  -4.584270e-001 1.200000e+000 -2.777900e-002
      vertex  -4.584270e-001 1.000000e+000 -2.777900e-002
      vertex  -4.646450e-001 1.000000e+000 -3.535500e-002
    endloop
  endfacet
  facet normal 7.729843e-001 0.000000e+000 -6.344251e-001
    outer loop
      vertex  -4.584270e-001 1.200000e+000 -2.777900e-002
      vertex  -4.646450e-001 1.000000e+000 -3.535500e-002
      vertex  -4.646450e-001 1.200000e+000 -3.535500e-002
    endloop
  endfacet
  facet normal 6.344265e-001 0.000000e+000 -7.729833e-001
    outer loop
      vertex  -4.646450e-001 1.200000e+000 -3.535500e-002
      vertex  -4.646450e-001 1.000000e+000 -3.535500e-002
      vertex  -4.722210e-001 1.000000e+000 -4.157300e-002
    endloop
  endfacet
  facet normal 6.344265e-001 0.000000e+000 -7.729833e-001
    outer loop
      vertex  -4.646450e-001 1.200000e+000 -3.535500e-002
      vertex  -4.722210e-001 1.000000e+000 -4.157300e-002
      vertex  -4.722210e-001 1.200000e+000 -4.157300e-002
    endloop
  endfacet
  facet normal 4.714087e-001 0.000000e+000 -8.819148e-001
    outer loop
      vertex  -4.722210e-001 1.200000e+000 -4.157300e-002
      vertex  -4.722210e-001 1.000000e+000 -4.157300e-002
      vertex  -4.808660e-001 1.000000e+000 -4.619400e-002
    endloop
  endfacet
  facet normal 4.714087e-001 0.000000e+000 -8.819148e-001
    outer loop
      vertex  -4.722210e-001 1.200000e+000 -4.157300e-002
      vertex  -4.808660e-001 1.000000e+000 -4.619400e-002
      vertex  -4.808660e-001 1.200000e+000 -4.619400e-002
    endloop
  endfacet
  facet normal 2.902756e-001 0.000000e+000 -9.569430e-001
    outer loop
      vertex  -4.808660e-001 1.200000e+000 -4.619400e-002
      vertex  -4.808660e-001 1.000000e+000 -4.619400e-002
      vertex  -4.902450e-001 1.000000e+000 -4.903900e-002
    endloop
  endfacet
  facet normal 2.902756e-001 0.000000e+000 -9.569430e-001
    outer loop
      vertex  -4.808660e-001 1.200000e+000 -4.619400e-002
      vertex  -4.902450e-001 1.000000e+000 -4.903900e-002
      vertex  -4.902450e-001 1.200000e+000 -4.903900e-002
    endloop
  endfacet
  facet normal 9.803934e-002 0.000000e+000 -9.951826e-001
    outer loop
      vertex  -4.902450e-001 1.200000e+000 -4.903900e-002
      vertex  -4.902450e-001 1.000000e+000 -4.903900e-002
      vertex  -5.000000e-001 1.000000e+000 -5.000000e-002
    endloop
  endfacet
  facet normal 9.803934e-002 0.000000e+000 -9.951826e-001
    outer loop
      vertex  -4.902450e-001 1.200000e+000 -4.903900e-002
      vertex  -5.000000e-001 1.000000e+000 -5.000000e-002
      vertex  -5.000000e-001 1.200000e+000 -5.000000e-002
    endloop
  endfacet
  facet normal -9.803905e-002 -0.000000e+000 -9.951825e-001
    outer loop
      vertex  -5.000000e-001 1.200000e+000 -5.000000e-002
      vertex  -5.000000e-001 1.000000e+000 -5.000000e-002
      vertex  -5.097550e-001 1.000000e+000 -4.903900e-002
    endloop
  endfacet
  facet normal -9.803905e-002 0.000000e+000 -9.951825e-001
    outer loop
      vertex  -5.000000e-001 1.200000e+000 -5.000000e-002
      vertex  -5.097550e-001 1.000000e+000 -4.903900e-002
      vertex  -5.097550e-001 1.200000e+000 -4.903900e-002
    endloop
  endfacet
  facet normal -2.902773e-001 -0.000000e+000 -9.569426e-001
    outer loop
      vertex  -5.097550e-001 1.200000e+000 -4.903900e-002
      vertex  -5.097550e-001 1.000000e+000 -4.903900e-002
      vertex  -5.191340e-001 1.000000e+000 -4.619400e-002
    endloop
  endfacet
  facet normal -2.902773e-001 0.000000e+000 -9.569426e-001
    outer loop
      vertex  -5.097550e-001 1.200000e+000 -4.903900e-002
      vertex  -5.191340e-001 1.000000e+000 -4.619400e-002
      vertex  -5.191340e-001 1.200000e+000 -4.619400e-002
    endloop
  endfacet
  facet normal -4.714087e-001 -0.000000e+000 -8.819148e-001
    outer loop
      vertex  -5.191340e-001 1.200000e+000 -4.619400e-002
      vertex  -5.191340e-001 1.000000e+000 -4.619400e-002
      vertex  -5.277790e-001 1.000000e+000 -4.157300e-002
    endloop
  endfacet
  facet normal -4.714087e-001 0.000000e+000 -8.819148e-001
    outer loop
      vertex  -5.191340e-001 1.200000e+000 -4.619400e-002
      vertex  -5.277790e-001 1.000000e+000 -4.157300e-002
      vertex  -5.277790e-001 1.200000e+000 -4.157300e-002
    endloop
  endfacet
  facet normal -6.344265e-001 -0.000000e+000 -7.729833e-001
    outer loop
      vertex  -5.277790e-001 1.200000e+000 -4.157300e-002
      vertex  -5.277790e-001 1.000000e+000 -4.157300e-002
      vertex  -5.353550e-001 1.000000e+000 -3.535500e-002
    endloop
  endfacet
  facet normal -6.344265e-001 0.000000e+000 -7.729833e-001
    outer loop
      vertex  -5.277790e-001 1.200000e+000 -4.157300e-002
      vertex  -5.353550e-001 1.000000e+000 -3.535500e-002
      vertex  -5.353550e-001 1.200000e+000 -3.535500e-002
    endloop
  endfacet
  facet normal -7.729732e-001 -0.000000e+000 -6.344387e-001
    outer loop
      vertex  -5.353550e-001 1.200000e+000 -3.535500e-002
      vertex  -5.353550e-001 1.000000e+000 -3.535500e-002
      vertex  -5.415740e-001 1.000000e+000 -2.777800e-002
    endloop
  endfacet
  facet normal -7.729732e-001 0.000000e+000 -6.344387e-001
    outer loop
      vertex  -5.353550e-001 1.200000e+000 -3.535500e-002
      vertex  -5.415740e-001 1.000000e+000 -2.777800e-002
      vertex  -5.415740e-001 1.200000e+000 -2.777800e-002
    endloop
  endfacet
  facet normal -8.819339e-001 -0.000000e+000 -4.713731e-001
    outer loop
      vertex  -5.415740e-001 1.200000e+000 -2.777800e-002
      vertex  -5.415740e-001 1.000000e+000 -2.777800e-002
      vertex  -5.461940e-001 1.000000e+000 -1.913400e-002
    endloop
  endfacet
  facet normal -8.819339e-001 0.000000e+000 -4.713731e-001
    outer loop
      vertex  -5.415740e-001 1.200000e+000 -2.777800e-002
      vertex  -5.461940e-001 1.000000e+000 -1.913400e-002
      vertex  -5.461940e-001 1.200000e+000 -1.913400e-002
    endloop
  endfacet
  facet normal -9.569517e-001 -0.000000e+000 -2.902471e-001
    outer loop
      vertex  -5.461940e-001 1.200000e+000 -1.913400e-002
      vertex  -5.461940e-001 1.000000e+000 -1.913400e-002
      vertex  -5.490390e-001 1.000000e+000 -9.754000e-003
    endloop
  endfacet
  facet normal -9.569517e-001 0.000000e+000 -2.902471e-001
    outer loop
      vertex  -5.461940e-001 1.200000e+000 -1.913400e-002
      vertex  -5.490390e-001 1.000000e+000 -9.754000e-003
      vertex  -5.490390e-001 1.200000e+000 -9.754000e-003
    endloop
  endfacet
  facet normal -9.951816e-001 -0.000000e+000 -9.804953e-002
    outer loop
      vertex  -5.490390e-001 1.200000e+000 -9.754000e-003
      vertex  -5.490390e-001 1.000000e+000 -9.754000e-003
      vertex  -5.500000e-001 1.000000e+000 0.000000e+000
    endloop
  endfacet
  facet normal -9.951816e-001 0.000000e+000 -9.804953e-002
    outer loop
      vertex  -5.490390e-001 1.200000e+000 -9.754000e-003
      vertex  -5.500000e-001 1.000000e+000 0.000000e+000
      vertex  -5.500000e-001 1.200000e+000 0.000000e+000
    endloop
  endfacet
  facet normal -9.951825e-001 0.000000e+000 9.803957e-002
    outer loop
      vertex  -5.500000e-001 1.200000e+000 0.000000e+000
      vertex  -5.500000e-001 1.000000e+000 0.000000e+000
      vertex  -5.490390e-001 1.000000e+000 9.755000e-003
    endloop
  endfacet
  facet normal -9.951825e-001 0.000000e+000 9.803957e-002
    outer loop
      vertex  -5.500000e-001 1.200000e+000 0.000000e+000
      vertex  -5.490390e-001 1.000000e+000 9.755000e-003
      vertex  -5.490390e-001 1.200000e+000 9.755000e-003
    endloop
  endfacet
  facet normal -9.569432e-001 0.000000e+000 2.902754e-001
    outer loop
      vertex  -5.490390e-001 1.200000e+000 9.755000e-003
      vertex  -5.490390e-001 1.000000e+000 9.755000e-003
      vertex  -5.461940e-001 1.000000e+000 1.913400e-002
    endloop
  endfacet
  facet normal -9.569432e-001 0.000000e+000 2.902754e-001
    outer loop
      vertex  -5.490390e-001 1.200000e+000 9.755000e-003
      vertex  -5.461940e-001 1.000000e+000 1.913400e-002
      vertex  -5.461940e-001 1.200000e+000 1.913400e-002
    endloop
  endfacet
  facet normal -8.819136e-001 0.000000e+000 4.714110e-001
    outer loop
      vertex  -5.461940e-001 1.200000e+000 1.913400e-002
      vertex  -5.461940e-001 1.000000e+000 1.913400e-002
      vertex  -5.415730e-001 1.000000e+000 2.777900e-002
    endloop
  endfacet
  facet normal -8.819136e-001 0.000000e+000 4.714110e-001
    outer loop
      vertex  -5.461940e-001 1.200000e+000 1.913400e-002
      vertex  -5.415730e-001 1.000000e+000 2.777900e-002
      vertex  -5.415730e-001 1.200000e+000 2.777900e-002
    endloop
  endfacet
  facet normal -7.729829e-001 0.000000e+000 6.344270e-001
    outer loop
      vertex  -5.415730e-001 1.200000e+000 2.777900e-002
      vertex  -5.415730e-001 1.000000e+000 2.777900e-002
      vertex  -5.353550e-001 1.000000e+000 3.535500e-002
    endloop
  endfacet
  facet normal -7.729829e-001 0.000000e+000 6.344270e-001
    outer loop
      vertex  -5.415730e-001 1.200000e+000 2.777900e-002
      vertex  -5.353550e-001 1.000000e+000 3.535500e-002
      vertex  -5.353550e-001 1.200000e+000 3.535500e-002
    endloop
  endfacet
  facet normal -6.344398e-001 0.000000e+000 7.729722e-001
    outer loop
      vertex  -5.353550e-001 1.200000e+000 3.535500e-002
      vertex  -5.353550e-001 1.000000e+000 3.535500e-002
      vertex  -5.277780e-001 1.000000e+000 4.157400e-002
    endloop
  endfacet
  facet normal -6.344398e-001 0.000000e+000 7.729722e-001
    outer loop
      vertex  -5.353550e-001 1.200000e+000 3.535500e-002
      vertex  -5.277780e-001 1.000000e+000 4.157400e-002
      vertex  -5.277780e-001 1.200000e+000 4.157400e-002
    endloop
  endfacet
  facet normal -4.713697e-001 0.000000e+000 8.819358e-001
    outer loop
      vertex  -5.277780e-001 1.200000e+000 4.157400e-002
      vertex  -5.277780e-001 1.000000e+000 4.157400e-002
      vertex  -5.191340e-001 1.000000e+000 4.619400e-002
    endloop
  endfacet
  facet normal -4.713697e-001 0.000000e+000 8.819358e-001
    outer loop
      vertex  -5.277780e-001 1.200000e+000 4.157400e-002
      vertex  -5.191340e-001 1.000000e+000 4.619400e-002
      vertex  -5.191340e-001 1.200000e+000 4.619400e-002
    endloop
  endfacet
  facet normal 0.000000e+000 -1.000000e+000 0.000000e+000
    outer loop
      vertex  -4.902450e-001 1.000000e+000 4.903900e-002
      vertex  -5.000000e-001 1.000000e+000 5.000000e-002
      vertex  -5.097540e-001 1.000000e+000 4.903900e-002
    endloop
  endfacet
  facet normal -0.000000e+000 -1.000000e+000 0.000000e+000
    outer loop
      vertex  -4.902450e-001 1.000000e+000 4.903900e-002
      vertex  -5.097540e-001 1.000000e+000 4.903900e-002
      vertex  -5.191340e-001 1.000000e+000 4.619400e-002
    endloop
  endfacet
  facet normal 0.000000e+000 -1.000000e+000 -0.000000e+000
    outer loop
      vertex  -4.902450e-001 1.000000e+000 4.903900e-002
      vertex  -5.191340e-001 1.000000e+000 4.619400e-002
      vertex  -4.808660e-001 1.000000e+000 4.619400e-002
    endloop
  endfacet
  facet normal 0.000000e+000 -1.000000e+000 -0.000000e+000
    outer loop
      vertex  -5.191340e-001 1.000000e+000 4.619400e-002
      vertex  -5.277780e-001 1.000000e+000 4.157400e-002
      vertex  -4.808660e-001 1.000000e+000 4.619400e-002
    endloop
  endfacet
  facet normal 0.000000e+000 -1.000000e+000 0.000000e+000
    outer loop
      vertex  -5.277780e-001 1.000000e+000 4.157400e-002
      vertex  -4.722210e-001 1.000000e+000 4.157300e-002
      vertex  -4.808660e-001 1.000000e+000 4.619400e-002
    endloop
  endfacet
  facet normal 0.000000e+000 -1.000000e+000 -0.000000e+000
    outer loop
      vertex  -5.277780e-001 1.000000e+000 4.157400e-002
      vertex  -5.353550e-001 1.000000e+000 3.535500e-002
      vertex  -4.722210e-001 1.000000e+000 4.157300e-002
    endloop
  endfacet
  facet normal 0.000000e+000 -1.000000e+000 0.000000e+000
    outer loop
      vertex  -5.353550e-001 1.000000e+000 3.535500e-002
      vertex  -4.646450e-001 1.000000e+000 3.535500e-002
      vertex  -4.722210e-001 1.000000e+000 4.157300e-002
    endloop
  endfacet
  facet normal 0.000000e+000 -1.000000e+000 -0.000000e+000
    outer loop
      vertex  -5.353550e-001 1.000000e+000 3.535500e-002
      vertex  -5.415730e-001 1.000000e+000 2.777900e-002
      vertex  -4.646450e-001 1.000000e+000 3.535500e-002
    endloop
  endfacet
  facet normal 0.000000e+000 -1.000000e+000 0.000000e+000
    outer loop
      vertex  -5.415730e-001 1.000000e+000 2.777900e-002
      vertex  -4.584270e-001 1.000000e+000 2.777900e-002
      vertex  -4.646450e-001 1.000000e+000 3.535500e-002
    endloop
  endfacet
  facet normal 0.000000e+000 -1.000000e+000 -0.000000e+000
    outer loop
      vertex  -5.415730e-001 1.000000e+000 2.777900e-002
      vertex  -5.461940e-001 1.000000e+000 1.913400e-002
      vertex  -4.584270e-001 1.000000e+000 2.777900e-002
    endloop
  endfacet
  facet normal 0.000000e+000 -1.000000e+000 0.000000e+000
    outer loop
      vertex  -5.461940e-001 1.000000e+000 1.913400e-002
      vertex  -4.538060e-001 1.000000e+000 1.913400e-002
      vertex  -4.584270e-001 1.000000e+000 2.777900e-002
    endloop
  endfacet
  facet normal 0.000000e+000 -1.000000e+000 -0.000000e+000
    outer loop
      vertex  -5.461940e-001 1.000000e+000 1.913400e-002
      vertex  -5.490390e-001 1.000000e+000 9.755000e-003
      vertex  -4.538060e-001 1.000000e+000 1.913400e-002
    endloop
  endfacet
  facet normal 0.000000e+000 -1.000000e+000 0.000000e+000
    outer loop
      vertex  -5.490390e-001 1.000000e+000 9.755000e-003
      vertex  -4.509610e-001 1.000000e+000 9.755000e-003
      vertex  -4.538060e-001 1.000000e+000 1.913400e-002
    endloop
  endfacet
  facet normal 0.000000e+000 -1.000000e+000 -0.000000e+000
    outer loop
      vertex  -5.490390e-001 1.000000e+000 9.755000e-003
      vertex  -5.500000e-001 1.000000e+000 0.000000e+000
      vertex  -4.509610e-001 1.000000e+000 9.755000e-003
    endloop
  endfacet
  facet normal 0.000000e+000 -1.000000e+000 0.000000e+000
    outer loop
      vertex  -5.500000e-001 1.000000e+000 0.000000e+000
      vertex  -4.500000e-001 1.000000e+000 -0.000000e+000
      vertex  -4.509610e-001 1.000000e+000 9.755000e-003
    endloop
  endfacet
  facet normal 0.000000e+000 -1.000000e+000 0.000000e+000
    outer loop
      vertex  -5.500000e-001 1.000000e+000 0.000000e+000
      vertex  -5.490390e-001 1.000000e+000 -9.754000e-003
      vertex  -4.500000e-001 1.000000e+000 -0.000000e+000
    endloop
  endfacet
  facet normal 0.000000e+000 -1.000000e+000 0.000000e+000
    outer loop
      vertex  -5.490390e-001 1.000000e+000 -9.754000e-003
      vertex  -4.509610e-001 1.000000e+000 -9.755000e-003
      vertex  -4.500000e-001 1.000000e+000 -0.000000e+000
    endloop
  endfacet
  facet normal 0.000000e+000 -1.000000e+000 0.000000e+000
    outer loop
      vertex  -5.490390e-001 1.000000e+000 -9.754000e-003
      vertex  -5.461940e-001 1.000000e+000 -1.913400e-002
      vertex  -4.509610e-001 1.000000e+000 -9.755000e-003
    endloop
  endfacet
  facet normal 0.000000e+000 -1.000000e+000 0.000000e+000
    outer loop
      vertex  -5.461940e-001 1.000000e+000 -1.913400e-002
      vertex  -4.538060e-001 1.000000e+000 -1.913400e-002
      vertex  -4.509610e-001 1.000000e+000 -9.755000e-003
    endloop
  endfacet
  facet normal 0.000000e+000 -1.000000e+000 0.000000e+000
    outer loop
      vertex  -5.461940e-001 1.000000e+000 -1.913400e-002
      vertex  -5.415740e-001 1.000000e+000 -2.777800e-002
      vertex  -4.538060e-001 1.000000e+000 -1.913400e-002
    endloop
  endfacet
  facet normal 0.000000e+000 -1.000000e+000 0.000000e+000
    outer loop
      vertex  -5.415740e-001 1.000000e+000 -2.777800e-002
      vertex  -4.584270e-001 1.000000e+000 -2.777900e-002
      vertex  -4.538060e-001 1.000000e+000 -1.913400e-002
    endloop
  endfacet
  facet normal 0.000000e+000 -1.000000e+000 0.000000e+000
    outer loop
      vertex  -5.415740e-001 1.000000e+000 -2.777800e-002
      vertex  -5.353550e-001 1.000000e+000 -3.535500e-002
      vertex  -4.584270e-001 1.000000e+000 -2.777900e-002
    endloop
  endfacet
  facet normal 0.000000e+000 -1.000000e+000 0.000000e+000
    outer loop
      vertex  -5.353550e-001 1.000000e+000 -3.535500e-002
      vertex  -4.646450e-001 1.000000e+000 -3.535500e-002
      vertex  -4.584270e-001 1.000000e+000 -2.777900e-002
    endloop
  endfacet
  facet normal 0.000000e+000 -1.000000e+000 0.000000e+000
    outer loop
      vertex  -5.353550e-001 1.000000e+000 -3.535500e-002
      vertex  -5.277790e-001 1.000000e+000 -4.157300e-002
      vertex  -4.646450e-001 1.000000e+000 -3.535500e-002
    endloop
  endfacet
  facet normal 0.000000e+000 -1.000000e+000 0.000000e+000
    outer loop
      vertex  -5.277790e-001 1.000000e+000 -4.157300e-002
      vertex  -4.722210e-001 1.000000e+000 -4.157300e-002
      vertex  -4.646450e-001 1.000000e+000 -3.535500e-002
    endloop
  endfacet
  facet normal 0.000000e+000 -1.000000e+000 0.000000e+000
    outer loop
      vertex  -5.277790e-001 1.000000e+000 -4.157300e-002
      vertex  -5.191340e-001 1.000000e+000 -4.619400e-002
      vertex  -4.722210e-001 1.000000e+000 -4.157300e-002
    endloop
  endfacet
  facet normal 0.000000e+000 -1.000000e+000 0.000000e+000
    outer loop
      vertex  -5.191340e-001 1.000000e+000 -4.619400e-002
      vertex  -4.808660e-001 1.000000e+000 -4.619400e-002
      vertex  -4.722210e-001 1.000000e+000 -4.157300e-002
    endloop
  endfacet
  facet normal 0.000000e+000 -1.000000e+000 0.000000e+000
    outer loop
      vertex  -5.191340e-001 1.000000e+000 -4.619400e-002
      vertex  -5.097550e-001 1.000000e+000 -4.903900e-002
      vertex  -4.808660e-001 1.000000e+000 -4.619400e-002
    endloop
  endfacet
  facet normal 0.000000e+000 -1.000000e+000 0.000000e+000
    outer loop
      vertex  -5.097550e-001 1.000000e+000 -4.903900e-002
      vertex  -4.902450e-001 1.000000e+000 -4.903900e-002
      vertex  -4.808660e-001 1.000000e+000 -4.619400e-002
    endloop
  endfacet
  facet normal 0.000000e+000 -1.000000e+000 0.000000e+000
    outer loop
      vertex  -5.097550e-001 1.000000e+000 -4.903900e-002
      vertex  -5.000000e-001 1.000000e+000 -5.000000e-002
      vertex  -4.902450e-001 1.000000e+000 -4.903900e-002
    endloop
  endfacet
  facet normal -9.804914e-002 0.000000e+000 9.951816e-001
    outer loop
      vertex  -5.000000e-001 1.000000e+000 5.000000e-002
      vertex  -5.000000e-001 1.200000e+000 5.000000e-002
      vertex  -5.097540e-001 1.200000e+000 4.903900e-002
    endloop
  endfacet
  facet normal -9.804914e-002 0.000000e+000 9.951816e-001
    outer loop
      vertex  -5.000000e-001 1.000000e+000 5.000000e-002
      vertex  -5.097540e-001 1.200000e+000 4.903900e-002
      vertex  -5.097540e-001 1.000000e+000 4.903900e-002
    endloop
  endfacet
  facet normal -2.902486e-001 0.000000e+000 9.569513e-001
    outer loop
      vertex  -5.191340e-001 1.200000e+000 4.619400e-002
      vertex  -5.191340e-001 1.000000e+000 4.619400e-002
      vertex  -5.097540e-001 1.000000e+000 4.903900e-002
    endloop
  endfacet
  facet normal -2.902486e-001 0.000000e+000 9.569513e-001
    outer loop
      vertex  -5.191340e-001 1.200000e+000 4.619400e-002
      vertex  -5.097540e-001 1.000000e+000 4.903900e-002
      vertex  -5.097540e-001 1.200000e+000 4.903900e-002
    endloop
  endfacet
  facet normal 0.000000e+000 1.000000e+000 0.000000e+000
    outer loop
      vertex  -4.902450e-001 1.200000e+000 -4.903900e-002
      vertex  -5.000000e-001 1.200000e+000 -5.000000e-002
      vertex  -5.097550e-001 1.200000e+000 -4.903900e-002
    endloop
  endfacet
  facet normal 0.000000e+000 1.000000e+000 0.000000e+000
    outer loop
      vertex  -4.808660e-001 1.200000e+000 -4.619400e-002
      vertex  -4.902450e-001 1.200000e+000 -4.903900e-002
      vertex  -5.097550e-001 1.200000e+000 -4.903900e-002
    endloop
  endfacet
  facet normal 0.000000e+000 1.000000e+000 0.000000e+000
    outer loop
      vertex  -4.808660e-001 1.200000e+000 -4.619400e-002
      vertex  -5.097550e-001 1.200000e+000 -4.903900e-002
      vertex  -5.191340e-001 1.200000e+000 -4.619400e-002
    endloop
  endfacet
  facet normal 0.000000e+000 1.000000e+000 0.000000e+000
    outer loop
      vertex  -4.722210e-001 1.200000e+000 -4.157300e-002
      vertex  -4.808660e-001 1.200000e+000 -4.619400e-002
      vertex  -5.191340e-001 1.200000e+000 -4.619400e-002
    endloop
  endfacet
  facet normal 0.000000e+000 1.000000e+000 0.000000e+000
    outer loop
      vertex  -4.722210e-001 1.200000e+000 -4.157300e-002
      vertex  -5.191340e-001 1.200000e+000 -4.619400e-002
      vertex  -5.277790e-001 1.200000e+000 -4.157300e-002
    endloop
  endfacet
  facet normal 0.000000e+000 1.000000e+000 0.000000e+000
    outer loop
      vertex  -4.646450e-001 1.200000e+000 -3.535500e-002
      vertex  -4.722210e-001 1.200000e+000 -4.157300e-002
      vertex  -5.277790e-001 1.200000e+000 -4.157300e-002
    endloop
  endfacet
  facet normal 0.000000e+000 1.000000e+000 0.000000e+000
    outer loop
      vertex  -4.646450e-001 1.200000e+000 -3.535500e-002
      vertex  -5.277790e-001 1.200000e+000 -4.157300e-002
      vertex  -5.353550e-001 1.200000e+000 -3.535500e-002
    endloop
  endfacet
  facet normal 0.000000e+000 1.000000e+000 0.000000e+000
    outer loop
      vertex  -4.584270e-001 1.200000e+000 -2.777900e-002
      vertex  -4.646450e-001 1.200000e+000 -3.535500e-002
      vertex  -5.353550e-001 1.200000e+000 -3.535500e-002
    endloop
  endfacet
  facet normal 0.000000e+000 1.000000e+000 0.000000e+000
    outer loop
      vertex  -4.584270e-001 1.200000e+000 -2.777900e-002
      vertex  -5.353550e-001 1.200000e+000 -3.535500e-002
      vertex  -5.415740e-001 1.200000e+000 -2.777800e-002
    endloop
  endfacet
  facet normal 0.000000e+000 1.000000e+000 0.000000e+000
    outer loop
      vertex  -4.538060e-001 1.200000e+000 -1.913400e-002
      vertex  -4.584270e-001 1.200000e+000 -2.777900e-002
      vertex  -5.415740e-001 1.200000e+000 -2.777800e-002
    endloop
  endfacet
  facet normal 0.000000e+000 1.000000e+000 0.000000e+000
    outer loop
      vertex  -4.538060e-001 1.200000e+000 -1.913400e-002
      vertex  -5.415740e-001 1.200000e+000 -2.777800e-002
      vertex  -5.461940e-001 1.200000e+000 -1.913400e-002
    endloop
  endfacet
  facet normal 0.000000e+000 1.000000e+000 0.000000e+000
    outer loop
      vertex  -4.509610e-001 1.200000e+000 -9.755000e-003
      vertex  -4.538060e-001 1.200000e+000 -1.913400e-002
      vertex  -5.461940e-001 1.200000e+000 -1.913400e-002
    endloop
  endfacet
  facet normal 0.000000e+000 1.000000e+000 0.000000e+000
    outer loop
      vertex  -4.509610e-001 1.200000e+000 -9.755000e-003
      vertex  -5.461940e-001 1.200000e+000 -1.913400e-002
      vertex  -5.490390e-001 1.200000e+000 -9.754000e-003
    endloop
  endfacet
  facet normal 0.000000e+000 1.000000e+000 0.000000e+000
    outer loop
      vertex  -4.500000e-001 1.200000e+000 0.000000e+000
      vertex  -4.509610e-001 1.200000e+000 -9.755000e-003
      vertex  -5.490390e-001 1.200000e+000 -9.754000e-003
    endloop
  endfacet
  facet normal 0.000000e+000 1.000000e+000 0.000000e+000
    outer loop
      vertex  -4.500000e-001 1.200000e+000 0.000000e+000
      vertex  -5.490390e-001 1.200000e+000 -9.754000e-003
      vertex  -5.500000e-001 1.200000e+000 0.000000e+000
    endloop
  endfacet
  facet normal 0.000000e+000 1.000000e+000 0.000000e+000
    outer loop
      vertex  -4.509610e-001 1.200000e+000 9.755000e-003
      vertex  -4.500000e-001 1.200000e+000 0.000000e+000
      vertex  -5.500000e-001 1.200000e+000 0.000000e+000
    endloop
  endfacet
  facet normal 0.000000e+000 1.000000e+000 0.000000e+000
    outer loop
      vertex  -4.509610e-001 1.200000e+000 9.755000e-003
      vertex  -5.500000e-001 1.200000e+000 0.000000e+000
      vertex  -5.490390e-001 1.200000e+000 9.755000e-003
    endloop
  endfacet
  facet normal 0.000000e+000 1.000000e+000 0.000000e+000
    outer loop
      vertex  -4.538060e-001 1.200000e+000 1.913400e-002
      vertex  -4.509610e-001 1.200000e+000 9.755000e-003
      vertex  -5.490390e-001 1.200000e+000 9.755000e-003
    endloop
  endfacet
  facet normal 0.000000e+000 1.000000e+000 0.000000e+000
    outer loop
      vertex  -4.538060e-001 1.200000e+000 1.913400e-002
      vertex  -5.490390e-001 1.200000e+000 9.755000e-003
      vertex  -5.461940e-001 1.200000e+000 1.913400e-002
    endloop
  endfacet
  facet normal 0.000000e+000 1.000000e+000 0.000000e+000
    outer loop
      vertex  -4.584270e-001 1.200000e+000 2.777900e-002
      vertex  -4.538060e-001 1.200000e+000 1.913400e-002
      vertex  -5.461940e-001 1.200000e+000 1.913400e-002
    endloop
  endfacet
  facet normal 0.000000e+000 1.000000e+000 0.000000e+000
    outer loop
      vertex  -4.584270e-001 1.200000e+000 2.777900e-002
      vertex  -5.461940e-001 1.200000e+000 1.913400e-002
      vertex  -5.415730e-001 1.200000e+000 2.777900e-002
    endloop
  endfacet
  facet normal 0.000000e+000 1.000000e+000 0.000000e+000
    outer loop
      vertex  -4.646450e-001 1.200000e+000 3.535500e-002
      vertex  -4.584270e-001 1.200000e+000 2.777900e-002
      vertex  -5.415730e-001 1.200000e+000 2.777900e-002
    endloop
  endfacet
  facet normal 0.000000e+000 1.000000e+000 0.000000e+000
    outer loop
      vertex  -4.646450e-001 1.200000e+000 3.535500e-002
      vertex  -5.415730e-001 1.200000e+000 2.777900e-002
      vertex  -5.353550e-001 1.200000e+000 3.535500e-002
    endloop
  endfacet
  facet normal 0.000000e+000 1.000000e+000 0.000000e+000
    outer loop
      vertex  -4.722210e-001 1.200000e+000 4.157300e-002
      vertex  -4.646450e-001 1.200000e+000 3.535500e-002
      vertex  -5.353550e-001 1.200000e+000 3.535500e-002
    endloop
  endfacet
  facet normal 0.000000e+000 1.000000e+000 0.000000e+000
    outer loop
      vertex  -4.722210e-001 1.200000e+000 4.157300e-002
      vertex  -5.353550e-001 1.200000e+000 3.535500e-002
      vertex  -5.277780e-001 1.200000e+000 4.157400e-002
    endloop
  endfacet
  facet normal 0.000000e+000 1.000000e+000 0.000000e+000
    outer loop
      vertex  -4.808660e-001 1.200000e+000 4.619400e-002
      vertex  -4.722210e-001 1.200000e+000 4.157300e-002
      vertex  -5.277780e-001 1.200000e+000 4.157400e-002
    endloop
  endfacet
  facet normal 0.000000e+000 1.000000e+000 0.000000e+000
    outer loop
      vertex  -4.808660e-001 1.200000e+000 4.619400e-002
      vertex  -5.277780e-001 1.200000e+000 4.157400e-002
      vertex  -5.191340e-001 1.200000e+000 4.619400e-002
    endloop
  endfacet
  facet normal 0.000000e+000 1.000000e+000 0.000000e+000
    outer loop
      vertex  -4.902450e-001 1.200000e+000 4.903900e-002
      vertex  -4.808660e-001 1.200000e+000 4.619400e-002
      vertex  -5.191340e-001 1.200000e+000 4.619400e-002
    endloop
  endfacet
  facet normal 0.000000e+000 1.000000e+000 0.000000e+000
    outer loop
      vertex  -4.902450e-001 1.200000e+000 4.903900e-002
      vertex  -5.191340e-001 1.200000e+000 4.619400e-002
      vertex  -5.097540e-001 1.200000e+000 4.903900e-002
    endloop
  endfacet
  facet normal 0.000000e+000 1.000000e+000 0.000000e+000
    outer loop
      vertex  -5.000000e-001 1.200000e+000 5.000000e-002
      vertex  -4.902450e-001 1.200000e+000 4.903900e-002
      vertex  -5.097540e-001 1.200000e+000 4.903900e-002
    endloop
  endfacet
endsolid vcg
