solid vcg
  facet normal -1.000000e+000 0.000000e+000 0.000000e+000
    outer loop
      vertex  -1.000000e+000 1.000000e+000 -5.000000e-001
      vertex  -1.000000e+000 9.000000e-001 -5.000000e-001
      vertex  -1.000000e+000 9.000000e-001 5.000000e-001
    endloop
  endfacet
  facet normal -1.000000e+000 0.000000e+000 0.000000e+000
    outer loop
      vertex  -1.000000e+000 1.000000e+000 -5.000000e-001
      vertex  -1.000000e+000 9.000000e-001 5.000000e-001
      vertex  -1.000000e+000 1.000000e+000 5.000000e-001
    endloop
  endfacet
  facet normal -0.000000e+000 1.000000e+000 0.000000e+000
    outer loop
      vertex  -1.000000e+000 1.000000e+000 5.000000e-001
      vertex  1.000000e+000 1.000000e+000 5.000000e-001
      vertex  1.000000e+000 1.000000e+000 -5.000000e-001
    endloop
  endfacet
  facet normal 0.000000e+000 1.000000e+000 0.000000e+000
    outer loop
      vertex  -1.000000e+000 1.000000e+000 5.000000e-001
      vertex  1.000000e+000 1.000000e+000 -5.000000e-001
      vertex  -1.000000e+000 1.000000e+000 -5.000000e-001
    endloop
  endfacet
  facet normal 1.000000e+000 0.000000e+000 0.000000e+000
    outer loop
      vertex  1.000000e+000 1.000000e+000 5.000000e-001
      vertex  1.000000e+000 9.000000e-001 5.000000e-001
      vertex  1.000000e+000 9.000000e-001 -5.000000e-001
    endloop
  endfacet
  facet normal 1.000000e+000 0.000000e+000 0.000000e+000
    outer loop
      vertex  1.000000e+000 1.000000e+000 5.000000e-001
      vertex  1.000000e+000 9.000000e-001 -5.000000e-001
      vertex  1.000000e+000 1.000000e+000 -5.000000e-001
    endloop
  endfacet
  facet normal 0.000000e+000 -1.000000e+000 0.000000e+000
    outer loop
      vertex  -1.000000e+000 9.000000e-001 -5.000000e-001
      vertex  1.000000e+000 9.000000e-001 -5.000000e-001
      vertex  1.000000e+000 9.000000e-001 5.000000e-001
    endloop
  endfacet
  facet normal 0.000000e+000 -1.000000e+000 0.000000e+000
    outer loop
      vertex  -1.000000e+000 9.000000e-001 -5.000000e-001
      vertex  1.000000e+000 9.000000e-001 5.000000e-001
      vertex  -1.000000e+000 9.000000e-001 5.000000e-001
    endloop
  endfacet
  facet normal 0.000000e+000 0.000000e+000 -1.000000e+000
    outer loop
      vertex  -1.000000e+000 9.000000e-001 -5.000000e-001
      vertex  -1.000000e+000 1.000000e+000 -5.000000e-001
      vertex  1.000000e+000 1.000000e+000 -5.000000e-001
    endloop
  endfacet
  facet normal 0.000000e+000 0.000000e+000 -1.000000e+000
    outer loop
      vertex  -1.000000e+000 9.000000e-001 -5.000000e-001
      vertex  1.000000e+000 1.000000e+000 -5.000000e-001
      vertex  1.000000e+000 9.000000e-001 -5.000000e-001
    endloop
  endfacet
  facet normal 0.000000e+000 -0.000000e+000 1.000000e+000
    outer loop
      vertex  1.000000e+000 9.000000e-001 5.000000e-001
      vertex  1.000000e+000 1.000000e+000 5.000000e-001
      vertex  -1.000000e+000 1.000000e+000 5.000000e-001
    endloop
  endfacet
  facet normal 0.000000e+000 0.000000e+000 1.000000e+000
    outer loop
      vertex  1.000000e+000 9.000000e-001 5.000000e-001
      vertex  -1.000000e+000 1.000000e+000 5.000000e-001
      vertex  -1.000000e+000 9.000000e-001 5.000000e-001
    endloop
  endfacet
  facet normal -1.000000e+000 0.000000e+000 0.000000e+000
    outer loop
      vertex  -1.000000e+000 0.000000e+000 -4.000000e-001
      vertex  -1.000000e+000 1.000000e+000 -4.000000e-001
      vertex  -1.000000e+000 1.000000e+000 -5.000000e-001
    endloop
  endfacet
  facet normal -1.000000e+000 0.000000e+000 0.000000e+000
    outer loop
      vertex  -1.000000e+000 0.000000e+000 -4.000000e-001
      vertex  -1.000000e+000 1.000000e+000 -5.000000e-001
      vertex  -1.000000e+000 0.000000e+000 -5.000000e-001
    endloop
  endfacet
  facet normal -0.000000e+000 1.000000e+000 0.000000e+000
    outer loop
      vertex  -1.000000e+000 1.000000e+000 -4.000000e-001
      vertex  -9.000000e-001 1.000000e+000 -4.000000e-001
      vertex  -9.000000e-001 1.000000e+000 -5.000000e-001
    endloop
  endfacet
  facet normal 0.000000e+000 1.000000e+000 0.000000e+000
    outer loop
      vertex  -1.000000e+000 1.000000e+000 -4.000000e-001
      vertex  -9.000000e-001 1.000000e+000 -5.000000e-001
      vertex  -1.000000e+000 1.000000e+000 -5.000000e-001
    endloop
  endfacet
  facet normal 1.000000e+000 0.000000e+000 0.000000e+000
    outer loop
      vertex  -9.000000e-001 1.000000e+000 -4.000000e-001
      vertex  -9.000000e-001 0.000000e+000 -4.000000e-001
      vertex  -9.000000e-001 0.000000e+000 -5.000000e-001
    endloop
  endfacet
  facet normal 1.000000e+000 0.000000e+000 0.000000e+000
    outer loop
      vertex  -9.000000e-001 1.000000e+000 -4.000000e-001
      vertex  -9.000000e-001 0.000000e+000 -5.000000e-001
      vertex  -9.000000e-001 1.000000e+000 -5.000000e-001
    endloop
  endfacet
  facet normal -0.000000e+000 -1.000000e+000 0.000000e+000
    outer loop
      vertex  -9.000000e-001 0.000000e+000 -4.000000e-001
      vertex  -1.000000e+000 0.000000e+000 -4.000000e-001
      vertex  -1.000000e+000 0.000000e+000 -5.000000e-001
    endloop
  endfacet
  facet normal 0.000000e+000 -1.000000e+000 -0.000000e+000
    outer loop
      vertex  -9.000000e-001 0.000000e+000 -4.000000e-001
      vertex  -1.000000e+000 0.000000e+000 -5.000000e-001
      vertex  -9.000000e-001 0.000000e+000 -5.000000e-001
    endloop
  endfacet
  facet normal 0.000000e+000 0.000000e+000 -1.000000e+000
    outer loop
      vertex  -1.000000e+000 0.000000e+000 -5.000000e-001
      vertex  -1.000000e+000 1.000000e+000 -5.000000e-001
      vertex  -9.000000e-001 1.000000e+000 -5.000000e-001
    endloop
  endfacet
  facet normal 0.000000e+000 0.000000e+000 -1.000000e+000
    outer loop
      vertex  -1.000000e+000 0.000000e+000 -5.000000e-001
      vertex  -9.000000e-001 1.000000e+000 -5.000000e-001
      vertex  -9.000000e-001 0.000000e+000 -5.000000e-001
    endloop
  endfacet
  facet normal 0.000000e+000 -0.000000e+000 1.000000e+000
    outer loop
      vertex  -9.000000e-001 0.000000e+000 -4.000000e-001
      vertex  -9.000000e-001 1.000000e+000 -4.000000e-001
      vertex  -1.000000e+000 1.000000e+000 -4.000000e-001
    endloop
  endfacet
  facet normal 0.000000e+000 0.000000e+000 1.000000e+000
    outer loop
      vertex  -9.000000e-001 0.000000e+000 -4.000000e-001
      vertex  -1.000000e+000 1.000000e+000 -4.000000e-001
      vertex  -1.000000e+000 0.000000e+000 -4.000000e-001
    endloop
  endfacet
  facet normal -1.000000e+000 0.000000e+000 0.000000e+000
    outer loop
      vertex  9.000000e-001 0.000000e+000 -4.000000e-001
      vertex  9.000000e-001 1.000000e+000 -4.000000e-001
      vertex  9.000000e-001 1.000000e+000 -5.000000e-001
    endloop
  endfacet
  facet normal -1.000000e+000 0.000000e+000 0.000000e+000
    outer loop
      vertex  9.000000e-001 0.000000e+000 -4.000000e-001
      vertex  9.000000e-001 1.000000e+000 -5.000000e-001
      vertex  9.000000e-001 0.000000e+000 -5.000000e-001
    endloop
  endfacet
  facet normal -0.000000e+000 1.000000e+000 0.000000e+000
    outer loop
      vertex  9.000000e-001 1.000000e+000 -4.000000e-001
      vertex  1.000000e+000 1.000000e+000 -4.000000e-001
      vertex  1.000000e+000 1.000000e+000 -5.000000e-001
    endloop
  endfacet
  facet normal 0.000000e+000 1.000000e+000 0.000000e+000
    outer loop
      vertex  9.000000e-001 1.000000e+000 -4.000000e-001
      vertex  1.000000e+000 1.000000e+000 -5.000000e-001
      vertex  9.000000e-001 1.000000e+000 -5.000000e-001
    endloop
  endfacet
  facet normal 1.000000e+000 0.000000e+000 0.000000e+000
    outer loop
      vertex  1.000000e+000 1.000000e+000 -4.000000e-001
      vertex  1.000000e+000 0.000000e+000 -4.000000e-001
      vertex  1.000000e+000 0.000000e+000 -5.000000e-001
    endloop
  endfacet
  facet normal 1.000000e+000 0.000000e+000 0.000000e+000
    outer loop
      vertex  1.000000e+000 1.000000e+000 -4.000000e-001
      vertex  1.000000e+000 0.000000e+000 -5.000000e-001
      vertex  1.000000e+000 1.000000e+000 -5.000000e-001
    endloop
  endfacet
  facet normal -0.000000e+000 -1.000000e+000 0.000000e+000
    outer loop
      vertex  1.000000e+000 0.000000e+000 -4.000000e-001
      vertex  9.000000e-001 0.000000e+000 -4.000000e-001
      vertex  9.000000e-001 0.000000e+000 -5.000000e-001
    endloop
  endfacet
  facet normal 0.000000e+000 -1.000000e+000 -0.000000e+000
    outer loop
      vertex  1.000000e+000 0.000000e+000 -4.000000e-001
      vertex  9.000000e-001 0.000000e+000 -5.000000e-001
      vertex  1.000000e+000 0.000000e+000 -5.000000e-001
    endloop
  endfacet
  facet normal 0.000000e+000 0.000000e+000 -1.000000e+000
    outer loop
      vertex  9.000000e-001 0.000000e+000 -5.000000e-001
      vertex  9.000000e-001 1.000000e+000 -5.000000e-001
      vertex  1.000000e+000 1.000000e+000 -5.000000e-001
    endloop
  endfacet
  facet normal 0.000000e+000 0.000000e+000 -1.000000e+000
    outer loop
      vertex  9.000000e-001 0.000000e+000 -5.000000e-001
      vertex  1.000000e+000 1.000000e+000 -5.000000e-001
      vertex  1.000000e+000 0.000000e+000 -5.000000e-001
    endloop
  endfacet
  facet normal 0.000000e+000 -0.000000e+000 1.000000e+000
    outer loop
      vertex  1.000000e+000 0.000000e+000 -4.000000e-001
      vertex  1.000000e+000 1.000000e+000 -4.000000e-001
      vertex  9.000000e-001 1.000000e+000 -4.000000e-001
    endloop
  endfacet
  facet normal 0.000000e+000 0.000000e+000 1.000000e+000
    outer loop
      vertex  1.000000e+000 0.000000e+000 -4.000000e-001
      vertex  9.000000e-001 1.000000e+000 -4.000000e-001
      vertex  9.000000e-001 0.000000e+000 -4.000000e-001
    endloop
  endfacet
  facet normal -1.000000e+000 0.000000e+000 0.000000e+000
    outer loop
      vertex  -1.000000e+000 0.000000e+000 5.000000e-001
      vertex  -1.000000e+000 1.000000e+000 5.000000e-001
      vertex  -1.000000e+000 1.000000e+000 4.000000e-001
    endloop
  endfacet
  facet normal -1.000000e+000 0.000000e+000 0.000000e+000
    outer loop
      vertex  -1.000000e+000 0.000000e+000 5.000000e-001
      vertex  -1.000000e+000 1.000000e+000 4.000000e-001
      vertex  -1.000000e+000 0.000000e+000 4.000000e-001
    endloop
  endfacet
  facet normal -0.000000e+000 1.000000e+000 0.000000e+000
    outer loop
      vertex  -1.000000e+000 1.000000e+000 5.000000e-001
      vertex  -9.000000e-001 1.000000e+000 5.000000e-001
      vertex  -9.000000e-001 1.000000e+000 4.000000e-001
    endloop
  endfacet
  facet normal 0.000000e+000 1.000000e+000 0.000000e+000
    outer loop
      vertex  -1.000000e+000 1.000000e+000 5.000000e-001
      vertex  -9.000000e-001 1.000000e+000 4.000000e-001
      vertex  -1.000000e+000 1.000000e+000 4.000000e-001
    endloop
  endfacet
  facet normal 1.000000e+000 0.000000e+000 0.000000e+000
    outer loop
      vertex  -9.000000e-001 1.000000e+000 5.000000e-001
      vertex  -9.000000e-001 0.000000e+000 5.000000e-001
      vertex  -9.000000e-001 0.000000e+000 4.000000e-001
    endloop
  endfacet
  facet normal 1.000000e+000 0.000000e+000 0.000000e+000
    outer loop
      vertex  -9.000000e-001 1.000000e+000 5.000000e-001
      vertex  -9.000000e-001 0.000000e+000 4.000000e-001
      vertex  -9.000000e-001 1.000000e+000 4.000000e-001
    endloop
  endfacet
  facet normal -0.000000e+000 -1.000000e+000 0.000000e+000
    outer loop
      vertex  -9.000000e-001 0.000000e+000 5.000000e-001
      vertex  -1.000000e+000 0.000000e+000 5.000000e-001
      vertex  -1.000000e+000 0.000000e+000 4.000000e-001
    endloop
  endfacet
  facet normal 0.000000e+000 -1.000000e+000 -0.000000e+000
    outer loop
      vertex  -9.000000e-001 0.000000e+000 5.000000e-001
      vertex  -1.000000e+000 0.000000e+000 4.000000e-001
      vertex  -9.000000e-001 0.000000e+000 4.000000e-001
    endloop
  endfacet
  facet normal 0.000000e+000 0.000000e+000 -1.000000e+000
    outer loop
      vertex  -1.000000e+000 0.000000e+000 4.000000e-001
      vertex  -1.000000e+000 1.000000e+000 4.000000e-001
      vertex  -9.000000e-001 1.000000e+000 4.000000e-001
    endloop
  endfacet
  facet normal 0.000000e+000 0.000000e+000 -1.000000e+000
    outer loop
      vertex  -1.000000e+000 0.000000e+000 4.000000e-001
      vertex  -9.000000e-001 1.000000e+000 4.000000e-001
      vertex  -9.000000e-001 0.000000e+000 4.000000e-001
    endloop
  endfacet
  facet normal 0.000000e+000 -0.000000e+000 1.000000e+000
    outer loop
      vertex  -9.000000e-001 0.000000e+000 5.000000e-001
      vertex  -9.000000e-001 1.000000e+000 5.000000e-001
      vertex  -1.000000e+000 1.000000e+000 5.000000e-001
    endloop
  endfacet
  facet normal 0.000000e+000 0.000000e+000 1.000000e+000
    outer loop
      vertex  -9.000000e-001 0.000000e+000 5.000000e-001
      vertex  -1.000000e+000 1.000000e+000 5.000000e-001
      vertex  -1.000000e+000 0.000000e+000 5.000000e-001
    endloop
  endfacet
  facet normal -1.000000e+000 0.000000e+000 0.000000e+000
    outer loop
      vertex  9.000000e-001 0.000000e+000 5.000000e-001
      vertex  9.000000e-001 1.000000e+000 5.000000e-001
      vertex  9.000000e-001 1.000000e+000 4.000000e-001
    endloop
  endfacet
  facet normal -1.000000e+000 0.000000e+000 0.000000e+000
    outer loop
      vertex  9.000000e-001 0.000000e+000 5.000000e-001
      vertex  9.000000e-001 1.000000e+000 4.000000e-001
      vertex  9.000000e-001 0.000000e+000 4.000000e-001
    endloop
  endfacet
  facet normal -0.000000e+000 1.000000e+000 0.000000e+000
    outer loop
      vertex  9.000000e-001 1.000000e+000 5.000000e-001
      vertex  1.000000e+000 1.000000e+000 5.000000e-001
      vertex  1.000000e+000 1.000000e+000 4.000000e-001
    endloop
  endfacet
  facet normal 0.000000e+000 1.000000e+000 0.000000e+000
    outer loop
      vertex  9.000000e-001 1.000000e+000 5.000000e-001
      vertex  1.000000e+000 1.000000e+000 4.000000e-001
      vertex  9.000000e-001 1.000000e+000 4.000000e-001
    endloop
  endfacet
  facet normal 1.000000e+000 0.000000e+000 0.000000e+000
    outer loop
      vertex  1.000000e+000 1.000000e+000 5.000000e-001
      vertex  1.000000e+000 0.000000e+000 5.000000e-001
      vertex  1.000000e+000 0.000000e+000 4.000000e-001
    endloop
  endfacet
  facet normal 1.000000e+000 0.000000e+000 0.000000e+000
    outer loop
      vertex  1.000000e+000 1.000000e+000 5.000000e-001
      vertex  1.000000e+000 0.000000e+000 4.000000e-001
      vertex  1.000000e+000 1.000000e+000 4.000000e-001
    endloop
  endfacet
  facet normal -0.000000e+000 -1.000000e+000 0.000000e+000
    outer loop
      vertex  1.000000e+000 0.000000e+000 5.000000e-001
      vertex  9.000000e-001 0.000000e+000 5.000000e-001
      vertex  9.000000e-001 0.000000e+000 4.000000e-001
    endloop
  endfacet
  facet normal 0.000000e+000 -1.000000e+000 -0.000000e+000
    outer loop
      vertex  1.000000e+000 0.000000e+000 5.000000e-001
      vertex  9.000000e-001 0.000000e+000 4.000000e-001
      vertex  1.000000e+000 0.000000e+000 4.000000e-001
    endloop
  endfacet
  facet normal 0.000000e+000 0.000000e+000 -1.000000e+000
    outer loop
      vertex  9.000000e-001 0.000000e+000 4.000000e-001
      vertex  9.000000e-001 1.000000e+000 4.000000e-001
      vertex  1.000000e+000 1.000000e+000 4.000000e-001
    endloop
  endfacet
  facet normal 0.000000e+000 0.000000e+000 -1.000000e+000
    outer loop
      vertex  9.000000e-001 0.000000e+000 4.000000e-001
      vertex  1.000000e+000 1.000000e+000 4.000000e-001
      vertex  1.000000e+000 0.000000e+000 4.000000e-001
    endloop
  endfacet
  facet normal 0.000000e+000 -0.000000e+000 1.000000e+000
    outer loop
      vertex  1.000000e+000 0.000000e+000 5.000000e-001
      vertex  1.000000e+000 1.000000e+000 5.000000e-001
      vertex  9.000000e-001 1.000000e+000 5.000000e-001
    endloop
  endfacet
  facet normal 0.000000e+000 0.000000e+000 1.000000e+000
    outer loop
      vertex  1.000000e+000 0.000000e+000 5.000000e-001
      vertex  9.000000e-001 1.000000e+000 5.000000e-001
      vertex  9.000000e-001 0.000000e+000 5.000000e-001
    endloop
  endfacet
endsolid vcg
