solid vcg
  facet normal 0.000000e+000 -8.660255e-001 4.999998e-001
    outer loop
      vertex  -5.388600e+000 -4.041450e+000 -7.000000e+000
      vertex  5.388600e+000 -4.041450e+000 -7.000000e+000
      vertex  0.000000e+000 0.000000e+000 0.000000e+000
    endloop
  endfacet
  facet normal 7.924059e-001 -0.000000e+000 6.099941e-001
    outer loop
      vertex  5.388600e+000 -4.041450e+000 -7.000000e+000
      vertex  5.388600e+000 4.041450e+000 -7.000000e+000
      vertex  0.000000e+000 0.000000e+000 0.000000e+000
    endloop
  endfacet
  facet normal 0.000000e+000 8.660255e-001 4.999998e-001
    outer loop
      vertex  5.388600e+000 4.041450e+000 -7.000000e+000
      vertex  -5.388600e+000 4.041450e+000 -7.000000e+000
      vertex  0.000000e+000 0.000000e+000 0.000000e+000
    endloop
  endfacet
  facet normal -7.924059e-001 0.000000e+000 6.099941e-001
    outer loop
      vertex  -5.388600e+000 4.041450e+000 -7.000000e+000
      vertex  -5.388600e+000 -4.041450e+000 -7.000000e+000
      vertex  0.000000e+000 0.000000e+000 0.000000e+000
    endloop
  endfacet
  facet normal 0.000000e+000 0.000000e+000 -1.000000e+000
    outer loop
      vertex  5.388600e+000 -4.041450e+000 -7.000000e+000
      vertex  -5.388600e+000 -4.041450e+000 -7.000000e+000
      vertex  5.388600e+000 4.041450e+000 -7.000000e+000
    endloop
  endfacet
  facet normal -0.000000e+000 0.000000e+000 -1.000000e+000
    outer loop
      vertex  5.388600e+000 4.041450e+000 -7.000000e+000
      vertex  -5.388600e+000 -4.041450e+000 -7.000000e+000
      vertex  -5.388600e+000 4.041450e+000 -7.000000e+000
    endloop
  endfacet
  facet normal -1.000000e+000 0.000000e+000 0.000000e+000
    outer loop
      vertex  -5.000000e-002 -4.905000e-002 6.809900e-002
      vertex  -5.000000e-002 -1.905000e-002 6.809900e-002
      vertex  -5.000000e-002 -1.905000e-002 8.100000e-003
    endloop
  endfacet
  facet normal -1.000000e+000 0.000000e+000 0.000000e+000
    outer loop
      vertex  -5.000000e-002 -4.905000e-002 6.809900e-002
      vertex  -5.000000e-002 -1.905000e-002 8.100000e-003
      vertex  -5.000000e-002 -4.905000e-002 8.100000e-003
    endloop
  endfacet
  facet normal -0.000000e+000 1.000000e+000 0.000000e+000
    outer loop
      vertex  -5.000000e-002 -1.905000e-002 6.809900e-002
      vertex  5.000000e-002 -1.905000e-002 6.809900e-002
      vertex  5.000000e-002 -1.905000e-002 8.100000e-003
    endloop
  endfacet
  facet normal 0.000000e+000 1.000000e+000 0.000000e+000
    outer loop
      vertex  -5.000000e-002 -1.905000e-002 6.809900e-002
      vertex  5.000000e-002 -1.905000e-002 8.100000e-003
      vertex  -5.000000e-002 -1.905000e-002 8.100000e-003
    endloop
  endfacet
  facet normal 1.000000e+000 0.000000e+000 0.000000e+000
    outer loop
      vertex  5.000000e-002 -1.905000e-002 6.809900e-002
      vertex  5.000000e-002 -4.905000e-002 6.809900e-002
      vertex  5.000000e-002 -4.905000e-002 8.100000e-003
    endloop
  endfacet
  facet normal 1.000000e+000 0.000000e+000 0.000000e+000
    outer loop
      vertex  5.000000e-002 -1.905000e-002 6.809900e-002
      vertex  5.000000e-002 -4.905000e-002 8.100000e-003
      vertex  5.000000e-002 -1.905000e-002 8.100000e-003
    endloop
  endfacet
  facet normal -0.000000e+000 -1.000000e+000 0.000000e+000
    outer loop
      vertex  5.000000e-002 -4.905000e-002 6.809900e-002
      vertex  -5.000000e-002 -4.905000e-002 6.809900e-002
      vertex  -5.000000e-002 -4.905000e-002 8.100000e-003
    endloop
  endfacet
  facet normal 0.000000e+000 -1.000000e+000 -0.000000e+000
    outer loop
      vertex  5.000000e-002 -4.905000e-002 6.809900e-002
      vertex  -5.000000e-002 -4.905000e-002 8.100000e-003
      vertex  5.000000e-002 -4.905000e-002 8.100000e-003
    endloop
  endfacet
  facet normal 0.000000e+000 0.000000e+000 -1.000000e+000
    outer loop
      vertex  -5.000000e-002 -4.905000e-002 8.100000e-003
      vertex  -5.000000e-002 -1.905000e-002 8.100000e-003
      vertex  5.000000e-002 -1.905000e-002 8.100000e-003
    endloop
  endfacet
  facet normal 0.000000e+000 0.000000e+000 -1.000000e+000
    outer loop
      vertex  -5.000000e-002 -4.905000e-002 8.100000e-003
      vertex  5.000000e-002 -1.905000e-002 8.100000e-003
      vertex  5.000000e-002 -4.905000e-002 8.100000e-003
    endloop
  endfacet
  facet normal 0.000000e+000 -0.000000e+000 1.000000e+000
    outer loop
      vertex  5.000000e-002 -4.905000e-002 6.809900e-002
      vertex  5.000000e-002 -1.905000e-002 6.809900e-002
      vertex  -5.000000e-002 -1.905000e-002 6.809900e-002
    endloop
  endfacet
  facet normal 0.000000e+000 0.000000e+000 1.000000e+000
    outer loop
      vertex  5.000000e-002 -4.905000e-002 6.809900e-002
      vertex  -5.000000e-002 -1.905000e-002 6.809900e-002
      vertex  -5.000000e-002 -4.905000e-002 6.809900e-002
    endloop
  endfacet
  facet normal -1.000000e+000 0.000000e+000 0.000000e+000
    outer loop
      vertex  -1.397000e-001 -1.905000e-002 7.620000e-002
      vertex  -1.397000e-001 1.905000e-002 7.620000e-002
      vertex  -1.397000e-001 1.905000e-002 -1.000000e-006
    endloop
  endfacet
  facet normal -1.000000e+000 0.000000e+000 0.000000e+000
    outer loop
      vertex  -1.397000e-001 -1.905000e-002 7.620000e-002
      vertex  -1.397000e-001 1.905000e-002 -1.000000e-006
      vertex  -1.397000e-001 -1.905000e-002 -1.000000e-006
    endloop
  endfacet
  facet normal -0.000000e+000 1.000000e+000 0.000000e+000
    outer loop
      vertex  -1.397000e-001 1.905000e-002 7.620000e-002
      vertex  1.397000e-001 1.905000e-002 7.620000e-002
      vertex  1.397000e-001 1.905000e-002 -1.000000e-006
    endloop
  endfacet
  facet normal 0.000000e+000 1.000000e+000 0.000000e+000
    outer loop
      vertex  -1.397000e-001 1.905000e-002 7.620000e-002
      vertex  1.397000e-001 1.905000e-002 -1.000000e-006
      vertex  -1.397000e-001 1.905000e-002 -1.000000e-006
    endloop
  endfacet
  facet normal 1.000000e+000 0.000000e+000 0.000000e+000
    outer loop
      vertex  1.397000e-001 1.905000e-002 7.620000e-002
      vertex  1.397000e-001 -1.905000e-002 7.620000e-002
      vertex  1.397000e-001 -1.905000e-002 -1.000000e-006
    endloop
  endfacet
  facet normal 1.000000e+000 0.000000e+000 0.000000e+000
    outer loop
      vertex  1.397000e-001 1.905000e-002 7.620000e-002
      vertex  1.397000e-001 -1.905000e-002 -1.000000e-006
      vertex  1.397000e-001 1.905000e-002 -1.000000e-006
    endloop
  endfacet
  facet normal -0.000000e+000 -1.000000e+000 0.000000e+000
    outer loop
      vertex  1.397000e-001 -1.905000e-002 7.620000e-002
      vertex  -1.397000e-001 -1.905000e-002 7.620000e-002
      vertex  -1.397000e-001 -1.905000e-002 -1.000000e-006
    endloop
  endfacet
  facet normal 0.000000e+000 -1.000000e+000 -0.000000e+000
    outer loop
      vertex  1.397000e-001 -1.905000e-002 7.620000e-002
      vertex  -1.397000e-001 -1.905000e-002 -1.000000e-006
      vertex  1.397000e-001 -1.905000e-002 -1.000000e-006
    endloop
  endfacet
  facet normal 0.000000e+000 0.000000e+000 -1.000000e+000
    outer loop
      vertex  -1.397000e-001 -1.905000e-002 -1.000000e-006
      vertex  -1.397000e-001 1.905000e-002 -1.000000e-006
      vertex  1.397000e-001 1.905000e-002 -1.000000e-006
    endloop
  endfacet
  facet normal 0.000000e+000 0.000000e+000 -1.000000e+000
    outer loop
      vertex  -1.397000e-001 -1.905000e-002 -1.000000e-006
      vertex  1.397000e-001 1.905000e-002 -1.000000e-006
      vertex  1.397000e-001 -1.905000e-002 -1.000000e-006
    endloop
  endfacet
  facet normal 0.000000e+000 -0.000000e+000 1.000000e+000
    outer loop
      vertex  1.397000e-001 -1.905000e-002 7.620000e-002
      vertex  1.397000e-001 1.905000e-002 7.620000e-002
      vertex  -1.397000e-001 1.905000e-002 7.620000e-002
    endloop
  endfacet
  facet normal 0.000000e+000 0.000000e+000 1.000000e+000
    outer loop
      vertex  1.397000e-001 -1.905000e-002 7.620000e-002
      vertex  -1.397000e-001 1.905000e-002 7.620000e-002
      vertex  -1.397000e-001 -1.905000e-002 7.620000e-002
    endloop
  endfacet
endsolid vcg
